<svg width="673" height="115" viewBox="0 0 673 115" fill="none" xmlns="http://www.w3.org/2000/svg">
<rect x="1" y="3" width="671" height="74" rx="37" fill="url(#paint0_linear_372_16)" stroke="#FF6CC8" stroke-width="2"/>
<g filter="url(#filter0_d_372_16)">
<path d="M29.4 24V16.8H51V24H29.4ZM22.2 52.8V24H29.4V52.8H22.2ZM51 52.8V24H58.2V52.8H51ZM29.4 60V52.8H51V60H29.4ZM72.5836 24V16.8H94.1836V24H72.5836ZM65.3836 52.8V24H72.5836V52.8H65.3836ZM94.1836 31.2V24H101.384V31.2H94.1836ZM94.1836 52.8V45.6H101.384V52.8H94.1836ZM72.5836 60V52.8H94.1836V60H72.5836ZM108.567 24V16.8H144.567V24H130.167V60H122.967V24H108.567ZM158.951 24V16.8H180.551V24H158.951ZM151.751 60V24H158.951V45.6H180.551V24H187.751V60H180.551V52.8H158.951V60H151.751ZM194.934 60V16.8H223.734V24H202.134V31.2H223.734V38.4H202.134V52.8H223.734V60H194.934ZM223.734 31.2V24H230.934V31.2H223.734ZM223.734 52.8V38.4H230.934V52.8H223.734ZM245.318 45.6H252.518V52.8H245.318V60H238.118V16.8H245.318V45.6ZM266.918 16.8H274.118V60H266.918V38.4H259.718V31.2H266.918V16.8ZM252.518 45.6V38.4H259.718V45.6H252.518ZM281.302 24V16.8H317.302V24H302.902V60H295.702V24H281.302ZM353.285 52.8V60H324.485V16.8H331.685V31.2H353.285V38.4H331.685V52.8H353.285ZM353.285 38.4H360.485V52.8H353.285V38.4ZM418.09 16.8V24H396.49V16.8H418.09ZM389.29 31.2V24H396.49V31.2H389.29ZM425.29 24V31.2H418.09V24H425.29ZM418.09 31.2V38.4H403.69V31.2H418.09ZM418.09 52.8V38.4H425.29V52.8H418.09ZM389.29 45.6H396.49V52.8H389.29V45.6ZM418.09 52.8V60H396.49V52.8H418.09ZM439.673 24V16.8H461.273V24H439.673ZM432.473 60V24H439.673V45.6H461.273V24H468.473V60H461.273V52.8H439.673V60H432.473ZM511.657 16.8V60H504.457V52.8H482.857V45.6H504.457V24H482.857V16.8H511.657ZM482.857 45.6H475.657V24H482.857V45.6ZM475.657 60V52.8H482.857V60H475.657ZM518.841 60V16.8H547.641V24H526.041V31.2H547.641V38.4H526.041V52.8H547.641V60H518.841ZM547.641 31.2V24H554.841V31.2H547.641ZM547.641 52.8V38.4H554.841V52.8H547.641ZM583.624 31.2V38.4H569.224V60H562.024V16.8H569.224V31.2H583.624ZM598.024 16.8V24H590.824V16.8H598.024ZM590.824 24V31.2H583.624V24H590.824ZM590.824 45.6H583.624V38.4H590.824V45.6ZM590.824 60V45.6H598.024V60H590.824ZM612.408 16.8V31.2H605.208V16.8H612.408ZM634.008 16.8H641.208V52.8H634.008V38.4H612.408V31.2H634.008V16.8ZM605.208 45.6H612.408V52.8H605.208V45.6ZM634.008 52.8V60H612.408V52.8H634.008Z" fill="white"/>
</g>
<defs>
<filter id="filter0_d_372_16" x="21.2" y="15.8" width="627.008" height="51.2" filterUnits="userSpaceOnUse" color-interpolation-filters="sRGB">
<feFlood flood-opacity="0" result="BackgroundImageFix"/>
<feColorMatrix in="SourceAlpha" type="matrix" values="0 0 0 0 0 0 0 0 0 0 0 0 0 0 0 0 0 0 127 0" result="hardAlpha"/>
<feOffset dx="3" dy="3"/>
<feGaussianBlur stdDeviation="2"/>
<feComposite in2="hardAlpha" operator="out"/>
<feColorMatrix type="matrix" values="0 0 0 0 1 0 0 0 0 0 0 0 0 0 0.536842 0 0 0 1 0"/>
<feBlend mode="normal" in2="BackgroundImageFix" result="effect1_dropShadow_372_16"/>
<feBlend mode="normal" in="SourceGraphic" in2="effect1_dropShadow_372_16" result="shape"/>
</filter>
<linearGradient id="paint0_linear_372_16" x1="336.5" y1="2" x2="336.5" y2="78" gradientUnits="userSpaceOnUse">
<stop stop-color="white"/>
<stop offset="1" stop-color="#FEA7DB"/>
</linearGradient>
</defs>
</svg>
