<svg width="465" height="380" viewBox="0 0 465 380" fill="none" xmlns="http://www.w3.org/2000/svg">
<rect x="2" y="19" width="462" height="361" rx="80" fill="url(#paint0_linear_377_896)"/>
<g filter="url(#filter0_d_377_896)">
<path d="M165.2 210.8V215.6H155.6V230H150.8V201.2H155.6V210.8H165.2ZM174.8 201.2V206H170V201.2H174.8ZM170 206V210.8H165.2V206H170ZM170 220.4H165.2V215.6H170V220.4ZM170 230V220.4H174.8V230H170ZM184.389 201.2V210.8H179.589V201.2H184.389ZM198.789 201.2H203.589V225.2H198.789V215.6H184.389V210.8H198.789V201.2ZM179.589 220.4H184.389V225.2H179.589V220.4ZM198.789 225.2V230H184.389V225.2H198.789ZM232.378 201.2V230H227.578V206H213.178V230H208.378V201.2H232.378ZM241.967 220.4H246.767V225.2H241.967V230H237.167V201.2H241.967V220.4ZM256.367 201.2H261.167V230H256.367V215.6H251.567V210.8H256.367V201.2ZM246.767 220.4V215.6H251.567V220.4H246.767ZM265.956 206V201.2H289.956V206H280.356V230H275.556V206H265.956ZM313.945 225.2V230H294.745V201.2H299.545V210.8H313.945V215.6H299.545V225.2H313.945ZM313.945 215.6H318.745V225.2H313.945V215.6Z" fill="white"/>
</g>
<path d="M2.5 78.0002C11.968 44.1565 42.7449 20.7055 77.8877 20.557L385.623 19.2571C421.399 19.106 452.685 43.3272 461.5 78.0002V78.0002H2.5V78.0002Z" fill="url(#paint1_linear_377_896)"/>
<rect x="1" y="19" width="463" height="360" rx="79" stroke="#FF6CC8" stroke-width="2"/>
<rect x="57" y="1" width="233" height="49" rx="24.5" fill="url(#paint2_linear_377_896)" stroke="#FF6CC8" stroke-width="2"/>
<g filter="url(#filter1_d_377_896)">
<path d="M105.2 32.8H109.4V37H84.2V32.8H88.4V16H92.6V32.8H101V16H92.6V11.8H105.2V32.8ZM113.595 37V11.8H117.795V20.2H130.395V11.8H134.595V37H130.395V24.4H117.795V37H113.595ZM138.785 37V11.8H159.785V16H142.985V20.2H155.585V24.4H142.985V32.8H159.785V37H138.785ZM163.975 37V11.8H180.775V16H168.175V20.2H180.775V24.4H168.175V32.8H180.775V37H163.975ZM180.775 20.2V16H184.975V20.2H180.775ZM180.775 32.8V24.4H184.975V32.8H180.775ZM189.166 37V11.8H193.366V20.2H205.966V11.8H210.166V37H205.966V24.4H193.366V37H189.166ZM218.556 28.6H222.756V32.8H218.556V37H214.356V11.8H218.556V28.6ZM231.156 11.8H235.356V37H231.156V24.4H226.956V20.2H231.156V11.8ZM222.756 28.6V24.4H226.956V28.6H222.756ZM252.147 20.2V24.4H243.747V37H239.547V11.8H243.747V20.2H252.147ZM260.547 11.8V16H256.347V11.8H260.547ZM256.347 16V20.2H252.147V16H256.347ZM256.347 28.6H252.147V24.4H256.347V28.6ZM256.347 37V28.6H260.547V37H256.347Z" fill="white"/>
</g>
<defs>
<filter id="filter0_d_377_896" x="149.8" y="200.2" width="175.945" height="36.8" filterUnits="userSpaceOnUse" color-interpolation-filters="sRGB">
<feFlood flood-opacity="0" result="BackgroundImageFix"/>
<feColorMatrix in="SourceAlpha" type="matrix" values="0 0 0 0 0 0 0 0 0 0 0 0 0 0 0 0 0 0 127 0" result="hardAlpha"/>
<feOffset dx="3" dy="3"/>
<feGaussianBlur stdDeviation="2"/>
<feComposite in2="hardAlpha" operator="out"/>
<feColorMatrix type="matrix" values="0 0 0 0 1 0 0 0 0 0 0 0 0 0 0.536842 0 0 0 1 0"/>
<feBlend mode="normal" in2="BackgroundImageFix" result="effect1_dropShadow_377_896"/>
<feBlend mode="normal" in="SourceGraphic" in2="effect1_dropShadow_377_896" result="shape"/>
</filter>
<filter id="filter1_d_377_896" x="81.2002" y="8.80005" width="184.347" height="33.2" filterUnits="userSpaceOnUse" color-interpolation-filters="sRGB">
<feFlood flood-opacity="0" result="BackgroundImageFix"/>
<feColorMatrix in="SourceAlpha" type="matrix" values="0 0 0 0 0 0 0 0 0 0 0 0 0 0 0 0 0 0 127 0" result="hardAlpha"/>
<feOffset dx="1" dy="1"/>
<feGaussianBlur stdDeviation="2"/>
<feComposite in2="hardAlpha" operator="out"/>
<feColorMatrix type="matrix" values="0 0 0 0 1 0 0 0 0 0 0 0 0 0 0.536842 0 0 0 1 0"/>
<feBlend mode="normal" in2="BackgroundImageFix" result="effect1_dropShadow_377_896"/>
<feBlend mode="normal" in="SourceGraphic" in2="effect1_dropShadow_377_896" result="shape"/>
</filter>
<linearGradient id="paint0_linear_377_896" x1="233" y1="19" x2="233" y2="380" gradientUnits="userSpaceOnUse">
<stop stop-color="#FFE7F5"/>
<stop offset="1" stop-color="#FEA7DB"/>
</linearGradient>
<linearGradient id="paint1_linear_377_896" x1="239.243" y1="18" x2="239.243" y2="78" gradientUnits="userSpaceOnUse">
<stop stop-color="#FFEEF6"/>
<stop offset="1" stop-color="#FD8BD0"/>
</linearGradient>
<linearGradient id="paint2_linear_377_896" x1="173.5" y1="0" x2="173.5" y2="51" gradientUnits="userSpaceOnUse">
<stop stop-color="white"/>
<stop offset="1" stop-color="#FEA7DB"/>
</linearGradient>
</defs>
</svg>
