<svg width="573" height="468" viewBox="0 0 573 468" fill="none" xmlns="http://www.w3.org/2000/svg">
<path d="M4.54318 106.041C4.7959 62.0379 40.5384 26.5 84.5419 26.5H489.09C533.042 26.5 568.762 61.9574 569.088 105.908L571.171 387.408C571.5 431.821 535.587 468 491.173 468H82.9252C38.5629 468 2.67167 431.902 2.92645 387.541L4.54318 106.041Z" fill="url(#paint0_linear_395_2290)"/>
<g filter="url(#filter0_d_395_2290)">
<path d="M39.0771 235V229H69.0771V235H57.0771V265H51.0771V235H39.0771ZM81.0635 235V229H99.0635V235H81.0635ZM75.0635 259V235H81.0635V259H75.0635ZM99.0635 259V235H105.063V259H99.0635ZM81.0635 265V259H99.0635V265H81.0635ZM111.05 265V229H135.05V235H117.05V241H135.05V247H117.05V259H135.05V265H111.05ZM135.05 241V235H141.05V241H135.05ZM135.05 259V247H141.05V259H135.05ZM153.036 235V229H171.036V235H153.036ZM147.036 265V235H153.036V253H171.036V235H177.036V265H171.036V259H153.036V265H147.036ZM183.022 265V229H207.022V235H189.022V253H207.022V259H189.022V265H183.022ZM207.022 253V235H213.022V253H207.022ZM267.026 259H273.026V265H237.026V259H243.026V235H249.026V259H261.026V235H249.026V229H267.026V259ZM285.019 235V229H303.019V235H285.019ZM279.019 259V235H285.019V259H279.019ZM303.019 259V235H309.019V259H303.019ZM285.019 265V259H303.019V265H285.019ZM339.005 259V265H315.005V229H339.005V235H321.005V241H339.005V247H321.005V259H339.005ZM339.005 247H345.005V259H339.005V247ZM356.991 235V229H374.991V235H356.991ZM350.991 265V235H356.991V253H374.991V235H380.991V265H374.991V259H356.991V265H350.991ZM386.978 265V229H410.978V235H392.978V241H410.978V247H392.978V259H410.978V265H386.978ZM410.978 241V235H416.978V241H410.978ZM410.978 259V247H416.978V259H410.978ZM434.964 229H440.964V235H434.964V229ZM428.964 241V235H434.964V241H428.964ZM440.964 235H446.964V241H440.964V235ZM422.964 241H428.964V265H422.964V241ZM446.964 241H452.964V265H446.964V241ZM458.95 265V229H488.95V235H464.95V241H482.95V247H464.95V259H488.95V265H458.95ZM494.937 265V229H500.937V241H518.937V229H524.937V265H518.937V247H500.937V265H494.937ZM132.046 325V289H156.046V295H138.046V301H156.046V307H138.046V319H156.046V325H132.046ZM156.046 301V295H162.046V301H156.046ZM156.046 319V307H162.046V319H156.046ZM204.05 301V307H192.05V325H186.05V289H192.05V301H204.05ZM216.05 289V295H210.05V289H216.05ZM210.05 295V301H204.05V295H210.05ZM210.05 313H204.05V307H210.05V313ZM210.05 325V313H216.05V325H210.05ZM228.036 295V289H246.036V295H228.036ZM222.036 319V295H228.036V319H222.036ZM246.036 319V295H252.036V319H246.036ZM228.036 325V319H246.036V325H228.036ZM258.022 325V289H282.022V295H264.022V313H282.022V319H264.022V325H258.022ZM282.022 313V295H288.022V313H282.022ZM318.009 289V295H300.009V289H318.009ZM294.009 301V295H300.009V301H294.009ZM324.009 295V301H318.009V295H324.009ZM318.009 301V307H306.009V301H318.009ZM318.009 319V307H324.009V319H318.009ZM294.009 313H300.009V319H294.009V313ZM318.009 319V325H300.009V319H318.009ZM335.995 313H341.995V319H335.995V325H329.995V289H335.995V313ZM353.995 289H359.995V325H353.995V307H347.995V301H353.995V289ZM341.995 313V307H347.995V313H341.995ZM365.981 325V289H371.981V301H389.981V289H395.981V325H389.981V307H371.981V325H365.981ZM407.968 289V301H401.968V289H407.968ZM425.968 289H431.968V319H425.968V307H407.968V301H425.968V289ZM401.968 313H407.968V319H401.968V313ZM425.968 319V325H407.968V319H425.968Z" fill="white"/>
</g>
<path d="M4 93.5C8.28225 56.9582 39.1457 29.3489 75.937 29.1479L492.899 26.8694C531.555 26.6582 564.354 55.1879 569.5 93.5V93.5H4V93.5Z" fill="url(#paint1_linear_395_2290)"/>
<rect x="3" y="26" width="567" height="441" rx="79" stroke="#FF6CC8" stroke-width="2"/>
<circle cx="83.5" cy="40.5" r="25" fill="#FF6CC8" stroke="#FF6CC8" stroke-width="31"/>
<rect x="64.4409" y="21.4412" width="7.62353" height="7.62353" fill="white"/>
<rect x="72.0645" y="29.0646" width="7.62353" height="7.62353" fill="white"/>
<rect x="87.3115" y="29.0646" width="7.62353" height="7.62353" fill="white"/>
<rect x="64.4409" y="51.9353" width="7.62353" height="7.62353" fill="white"/>
<rect x="79.6875" y="36.6883" width="7.62353" height="7.62353" fill="white"/>
<rect x="94.9346" y="51.9353" width="7.62353" height="7.62353" fill="white"/>
<rect x="87.3115" y="44.3116" width="7.62353" height="7.62353" fill="white"/>
<rect x="94.9346" y="21.4412" width="7.62353" height="7.62353" fill="white"/>
<rect x="72.0645" y="44.3116" width="7.62353" height="7.62353" fill="white"/>
<defs>
<filter id="filter0_d_395_2290" x="38.0771" y="228" width="493.859" height="104" filterUnits="userSpaceOnUse" color-interpolation-filters="sRGB">
<feFlood flood-opacity="0" result="BackgroundImageFix"/>
<feColorMatrix in="SourceAlpha" type="matrix" values="0 0 0 0 0 0 0 0 0 0 0 0 0 0 0 0 0 0 127 0" result="hardAlpha"/>
<feOffset dx="3" dy="3"/>
<feGaussianBlur stdDeviation="2"/>
<feComposite in2="hardAlpha" operator="out"/>
<feColorMatrix type="matrix" values="0 0 0 0 1 0 0 0 0 0 0 0 0 0 0.536842 0 0 0 1 0"/>
<feBlend mode="normal" in2="BackgroundImageFix" result="effect1_dropShadow_395_2290"/>
<feBlend mode="normal" in="SourceGraphic" in2="effect1_dropShadow_395_2290" result="shape"/>
</filter>
<linearGradient id="paint0_linear_395_2290" x1="287.116" y1="23.4" x2="287.116" y2="468" gradientUnits="userSpaceOnUse">
<stop stop-color="#FFE7F5"/>
<stop offset="1" stop-color="#FEA7DB"/>
</linearGradient>
<linearGradient id="paint1_linear_395_2290" x1="300.144" y1="22.2555" x2="300.144" y2="98.9998" gradientUnits="userSpaceOnUse">
<stop stop-color="#FFEEF6"/>
<stop offset="1" stop-color="#FD8BD0"/>
</linearGradient>
</defs>
</svg>
