<svg width="465" height="380" viewBox="0 0 465 380" fill="none" xmlns="http://www.w3.org/2000/svg">
<rect x="2" y="19" width="462" height="361" rx="80" fill="url(#paint0_linear_377_887)"/>
<g filter="url(#filter0_d_377_887)">
<path d="M165.2 210.8V215.6H155.6V230H150.8V201.2H155.6V210.8H165.2ZM174.8 201.2V206H170V201.2H174.8ZM170 206V210.8H165.2V206H170ZM170 220.4H165.2V215.6H170V220.4ZM170 230V220.4H174.8V230H170ZM184.389 201.2V210.8H179.589V201.2H184.389ZM198.789 201.2H203.589V225.2H198.789V215.6H184.389V210.8H198.789V201.2ZM179.589 220.4H184.389V225.2H179.589V220.4ZM198.789 225.2V230H184.389V225.2H198.789ZM232.378 201.2V230H227.578V206H213.178V230H208.378V201.2H232.378ZM241.967 220.4H246.767V225.2H241.967V230H237.167V201.2H241.967V220.4ZM256.367 201.2H261.167V230H256.367V215.6H251.567V210.8H256.367V201.2ZM246.767 220.4V215.6H251.567V220.4H246.767ZM265.956 206V201.2H289.956V206H280.356V230H275.556V206H265.956ZM313.945 225.2V230H294.745V201.2H299.545V210.8H313.945V215.6H299.545V225.2H313.945ZM313.945 215.6H318.745V225.2H313.945V215.6Z" fill="white"/>
</g>
<path d="M2.5 78.0002C11.968 44.1565 42.7449 20.7055 77.8877 20.557L385.623 19.2571C421.399 19.106 452.685 43.3272 461.5 78.0002V78.0002H2.5V78.0002Z" fill="url(#paint1_linear_377_887)"/>
<rect x="1" y="19" width="463" height="360" rx="79" stroke="#FF6CC8" stroke-width="2"/>
<rect x="57" y="1" width="189" height="49" rx="24.5" fill="url(#paint2_linear_377_887)" stroke="#FF6CC8" stroke-width="2"/>
<g filter="url(#filter1_d_377_887)">
<path d="M92.2 38V12.8H96.4V17H100.6V21.2H96.4V38H92.2ZM104.8 21.2V17H109V12.8H113.2V38H109V21.2H104.8ZM100.6 25.4V21.2H104.8V25.4H100.6ZM121.59 17V12.8H134.19V17H121.59ZM117.39 38V17H121.59V29.6H134.19V17H138.39V38H134.19V33.8H121.59V38H117.39ZM146.781 17V12.8H159.381V17H146.781ZM142.581 33.8V17H146.781V33.8H142.581ZM159.381 21.2V17H163.581V21.2H159.381ZM159.381 33.8V29.6H163.581V33.8H159.381ZM146.781 38V33.8H159.381V38H146.781ZM180.371 21.2V25.4H171.971V38H167.771V12.8H171.971V21.2H180.371ZM188.771 12.8V17H184.571V12.8H188.771ZM184.571 17V21.2H180.371V17H184.571ZM184.571 29.6H180.371V25.4H184.571V29.6ZM184.571 38V29.6H188.771V38H184.571ZM197.162 17V12.8H209.762V17H197.162ZM192.962 38V17H197.162V29.6H209.762V17H213.962V38H209.762V33.8H197.162V38H192.962Z" fill="white"/>
</g>
<defs>
<filter id="filter0_d_377_887" x="149.8" y="200.2" width="175.945" height="36.8" filterUnits="userSpaceOnUse" color-interpolation-filters="sRGB">
<feFlood flood-opacity="0" result="BackgroundImageFix"/>
<feColorMatrix in="SourceAlpha" type="matrix" values="0 0 0 0 0 0 0 0 0 0 0 0 0 0 0 0 0 0 127 0" result="hardAlpha"/>
<feOffset dx="3" dy="3"/>
<feGaussianBlur stdDeviation="2"/>
<feComposite in2="hardAlpha" operator="out"/>
<feColorMatrix type="matrix" values="0 0 0 0 1 0 0 0 0 0 0 0 0 0 0.536842 0 0 0 1 0"/>
<feBlend mode="normal" in2="BackgroundImageFix" result="effect1_dropShadow_377_887"/>
<feBlend mode="normal" in="SourceGraphic" in2="effect1_dropShadow_377_887" result="shape"/>
</filter>
<filter id="filter1_d_377_887" x="89.2002" y="9.79999" width="129.762" height="33.2" filterUnits="userSpaceOnUse" color-interpolation-filters="sRGB">
<feFlood flood-opacity="0" result="BackgroundImageFix"/>
<feColorMatrix in="SourceAlpha" type="matrix" values="0 0 0 0 0 0 0 0 0 0 0 0 0 0 0 0 0 0 127 0" result="hardAlpha"/>
<feOffset dx="1" dy="1"/>
<feGaussianBlur stdDeviation="2"/>
<feComposite in2="hardAlpha" operator="out"/>
<feColorMatrix type="matrix" values="0 0 0 0 1 0 0 0 0 0 0 0 0 0 0.536842 0 0 0 1 0"/>
<feBlend mode="normal" in2="BackgroundImageFix" result="effect1_dropShadow_377_887"/>
<feBlend mode="normal" in="SourceGraphic" in2="effect1_dropShadow_377_887" result="shape"/>
</filter>
<linearGradient id="paint0_linear_377_887" x1="233" y1="19" x2="233" y2="380" gradientUnits="userSpaceOnUse">
<stop stop-color="#FFE7F5"/>
<stop offset="1" stop-color="#FEA7DB"/>
</linearGradient>
<linearGradient id="paint1_linear_377_887" x1="239.243" y1="18" x2="239.243" y2="78" gradientUnits="userSpaceOnUse">
<stop stop-color="#FFEEF6"/>
<stop offset="1" stop-color="#FD8BD0"/>
</linearGradient>
<linearGradient id="paint2_linear_377_887" x1="151.5" y1="0" x2="151.5" y2="51" gradientUnits="userSpaceOnUse">
<stop stop-color="white"/>
<stop offset="1" stop-color="#FEA7DB"/>
</linearGradient>
</defs>
</svg>
