<svg width="465" height="380" viewBox="0 0 465 380" fill="none" xmlns="http://www.w3.org/2000/svg">
<rect x="2" y="19" width="462" height="361" rx="80" fill="url(#paint0_linear_377_889)"/>
<g filter="url(#filter0_d_377_889)">
<path d="M165.2 210.8V215.6H155.6V230H150.8V201.2H155.6V210.8H165.2ZM174.8 201.2V206H170V201.2H174.8ZM170 206V210.8H165.2V206H170ZM170 220.4H165.2V215.6H170V220.4ZM170 230V220.4H174.8V230H170ZM184.389 201.2V210.8H179.589V201.2H184.389ZM198.789 201.2H203.589V225.2H198.789V215.6H184.389V210.8H198.789V201.2ZM179.589 220.4H184.389V225.2H179.589V220.4ZM198.789 225.2V230H184.389V225.2H198.789ZM232.378 201.2V230H227.578V206H213.178V230H208.378V201.2H232.378ZM241.967 220.4H246.767V225.2H241.967V230H237.167V201.2H241.967V220.4ZM256.367 201.2H261.167V230H256.367V215.6H251.567V210.8H256.367V201.2ZM246.767 220.4V215.6H251.567V220.4H246.767ZM265.956 206V201.2H289.956V206H280.356V230H275.556V206H265.956ZM313.945 225.2V230H294.745V201.2H299.545V210.8H313.945V215.6H299.545V225.2H313.945ZM313.945 215.6H318.745V225.2H313.945V215.6Z" fill="white"/>
</g>
<path d="M2.5 78.0002C11.968 44.1565 42.7449 20.7055 77.8877 20.557L385.623 19.2571C421.399 19.106 452.685 43.3272 461.5 78.0002V78.0002H2.5V78.0002Z" fill="url(#paint1_linear_377_889)"/>
<rect x="1" y="19" width="463" height="360" rx="79" stroke="#FF6CC8" stroke-width="2"/>
<rect x="47" y="1" width="236" height="49" rx="24.5" fill="url(#paint2_linear_377_889)" stroke="#FF6CC8" stroke-width="2"/>
<g filter="url(#filter1_d_377_889)">
<path d="M65.2 38V12.8H69.4V21.2H82V12.8H86.2V38H82V25.4H69.4V38H65.2ZM94.5904 17V12.8H107.19V17H94.5904ZM90.3904 38V17H94.5904V29.6H107.19V17H111.39V38H107.19V33.8H94.5904V38H90.3904ZM128.181 21.2V25.4H119.781V38H115.581V12.8H119.781V21.2H128.181ZM136.581 12.8V17H132.381V12.8H136.581ZM132.381 17V21.2H128.181V17H132.381ZM132.381 29.6H128.181V25.4H132.381V29.6ZM132.381 38V29.6H136.581V38H132.381ZM149.171 12.8H153.371V17H149.171V12.8ZM144.971 21.2V17H149.171V21.2H144.971ZM153.371 17H157.571V21.2H153.371V17ZM140.771 21.2H144.971V38H140.771V21.2ZM157.571 21.2H161.771V38H157.571V21.2ZM165.962 38V12.8H186.962V17H170.162V21.2H182.762V25.4H170.162V33.8H186.962V38H165.962ZM195.352 8.6V4.365H207.952V8.6H195.352ZM195.352 29.6H199.552V33.8H195.352V38H191.152V12.8H195.352V29.6ZM207.952 12.8H212.152V38H207.952V25.4H203.752V21.2H207.952V12.8ZM199.552 29.6V25.4H203.752V29.6H199.552ZM228.943 21.2V25.4H220.543V38H216.343V12.8H220.543V21.2H228.943ZM237.343 12.8V17H233.143V12.8H237.343ZM233.143 17V21.2H228.943V17H233.143ZM233.143 29.6H228.943V25.4H233.143V29.6ZM233.143 38V29.6H237.343V38H233.143ZM245.733 29.6H249.933V33.8H245.733V38H241.533V12.8H245.733V29.6ZM258.333 12.8H262.533V38H258.333V25.4H254.133V21.2H258.333V12.8ZM249.933 29.6V25.4H254.133V29.6H249.933Z" fill="white"/>
</g>
<defs>
<filter id="filter0_d_377_889" x="149.8" y="200.2" width="175.945" height="36.8" filterUnits="userSpaceOnUse" color-interpolation-filters="sRGB">
<feFlood flood-opacity="0" result="BackgroundImageFix"/>
<feColorMatrix in="SourceAlpha" type="matrix" values="0 0 0 0 0 0 0 0 0 0 0 0 0 0 0 0 0 0 127 0" result="hardAlpha"/>
<feOffset dx="3" dy="3"/>
<feGaussianBlur stdDeviation="2"/>
<feComposite in2="hardAlpha" operator="out"/>
<feColorMatrix type="matrix" values="0 0 0 0 1 0 0 0 0 0 0 0 0 0 0.536842 0 0 0 1 0"/>
<feBlend mode="normal" in2="BackgroundImageFix" result="effect1_dropShadow_377_889"/>
<feBlend mode="normal" in="SourceGraphic" in2="effect1_dropShadow_377_889" result="shape"/>
</filter>
<filter id="filter1_d_377_889" x="62.2002" y="1.36499" width="205.333" height="41.635" filterUnits="userSpaceOnUse" color-interpolation-filters="sRGB">
<feFlood flood-opacity="0" result="BackgroundImageFix"/>
<feColorMatrix in="SourceAlpha" type="matrix" values="0 0 0 0 0 0 0 0 0 0 0 0 0 0 0 0 0 0 127 0" result="hardAlpha"/>
<feOffset dx="1" dy="1"/>
<feGaussianBlur stdDeviation="2"/>
<feComposite in2="hardAlpha" operator="out"/>
<feColorMatrix type="matrix" values="0 0 0 0 1 0 0 0 0 0 0 0 0 0 0.536842 0 0 0 1 0"/>
<feBlend mode="normal" in2="BackgroundImageFix" result="effect1_dropShadow_377_889"/>
<feBlend mode="normal" in="SourceGraphic" in2="effect1_dropShadow_377_889" result="shape"/>
</filter>
<linearGradient id="paint0_linear_377_889" x1="233" y1="19" x2="233" y2="380" gradientUnits="userSpaceOnUse">
<stop stop-color="#FFE7F5"/>
<stop offset="1" stop-color="#FEA7DB"/>
</linearGradient>
<linearGradient id="paint1_linear_377_889" x1="239.243" y1="18" x2="239.243" y2="78" gradientUnits="userSpaceOnUse">
<stop stop-color="#FFEEF6"/>
<stop offset="1" stop-color="#FD8BD0"/>
</linearGradient>
<linearGradient id="paint2_linear_377_889" x1="165" y1="0" x2="165" y2="51" gradientUnits="userSpaceOnUse">
<stop stop-color="white"/>
<stop offset="1" stop-color="#FEA7DB"/>
</linearGradient>
</defs>
</svg>
