<svg width="573" height="468" viewBox="0 0 573 468" fill="none" xmlns="http://www.w3.org/2000/svg">
<path d="M4.54318 106.041C4.7959 62.0379 40.5384 26.5 84.5419 26.5H489.09C533.042 26.5 568.762 61.9574 569.088 105.908L571.171 387.408C571.5 431.821 535.587 468 491.173 468H82.9252C38.5629 468 2.67167 431.902 2.92645 387.541L4.54318 106.041Z" fill="url(#paint0_linear_416_19)"/>
<g filter="url(#filter0_d_416_19)">
<path d="M88.0537 209V173H112.054V179H94.0537V185H112.054V191H94.0537V203H112.054V209H88.0537ZM112.054 185V179H118.054V185H112.054ZM112.054 203V191H118.054V203H112.054ZM130.04 179V173H148.04V179H130.04ZM124.04 209V179H130.04V197H148.04V179H154.04V209H148.04V203H130.04V209H124.04ZM166.026 203H160.026V173H166.026V203ZM196.026 173H202.026V209H166.026V203H178.026V173H184.026V203H196.026V173ZM214.024 179V173H232.024V179H214.024ZM208.024 209V179H214.024V197H232.024V179H238.024V209H232.024V203H214.024V209H208.024ZM286.028 173V179H268.028V173H286.028ZM262.028 185V179H268.028V185H262.028ZM292.028 179V185H286.028V179H292.028ZM286.028 185V191H274.028V185H286.028ZM286.028 203V191H292.028V203H286.028ZM262.028 197H268.028V203H262.028V197ZM286.028 203V209H268.028V203H286.028ZM304.015 179V173H322.015V179H304.015ZM298.015 209V179H304.015V197H322.015V179H328.015V209H322.015V203H304.015V209H298.015ZM364.001 173V209H358.001V203H340.001V197H358.001V179H340.001V173H364.001ZM340.001 197H334.001V179H340.001V197ZM334.001 209V203H340.001V209H334.001ZM369.987 209V173H393.987V179H375.987V185H393.987V191H375.987V203H393.987V209H369.987ZM393.987 185V179H399.987V185H393.987ZM393.987 203V191H399.987V203H393.987ZM423.974 185V191H411.974V209H405.974V173H411.974V185H423.974ZM435.974 173V179H429.974V173H435.974ZM429.974 179V185H423.974V179H429.974ZM429.974 197H423.974V191H429.974V197ZM429.974 209V197H435.974V209H429.974ZM447.96 179V173H465.96V179H447.96ZM441.96 209V179H447.96V197H465.96V179H471.96V209H465.96V203H447.96V209H441.96ZM31.0898 239V233H49.0898V239H31.0898ZM25.0898 263V239H31.0898V263H25.0898ZM49.0898 263V239H55.0898V263H49.0898ZM31.0898 269V263H49.0898V269H31.0898ZM85.0762 263V269H61.0762V233H85.0762V239H67.0762V245H85.0762V251H67.0762V263H85.0762ZM85.0762 251H91.0762V263H85.0762V251ZM97.0625 269V233H121.063V239H103.063V257H121.063V263H103.063V269H97.0625ZM121.063 257V239H127.063V257H121.063ZM139.049 239V233H157.049V239H139.049ZM133.049 269V239H139.049V257H157.049V239H163.049V269H157.049V263H139.049V269H133.049ZM193.035 263V269H169.035V233H193.035V239H175.035V245H193.035V251H175.035V263H193.035ZM193.035 251H199.035V263H193.035V251ZM211.021 239V233H229.021V239H211.021ZM205.021 269V239H211.021V257H229.021V239H235.021V269H229.021V263H211.021V269H205.021ZM241.008 239V233H271.008V239H259.008V269H253.008V239H241.008ZM300.994 263V269H276.994V233H282.994V245H300.994V251H282.994V263H300.994ZM312.994 233H318.994V269H312.994V233ZM300.994 251H306.994V263H300.994V251ZM324.992 269V233H348.992V239H330.992V245H348.992V251H330.992V263H348.992V269H324.992ZM348.992 245V239H354.992V245H348.992ZM348.992 263V251H354.992V263H348.992ZM366.979 239V233H384.979V239H366.979ZM360.979 269V239H366.979V257H384.979V239H390.979V269H384.979V263H366.979V269H360.979ZM396.965 269V233H426.965V239H402.965V245H420.965V251H402.965V263H426.965V269H396.965ZM432.951 239V233H462.951V239H450.951V269H444.951V239H432.951ZM474.938 239V233H492.938V239H474.938ZM468.938 263V239H474.938V263H468.938ZM492.938 245V239H498.938V245H492.938ZM492.938 263V257H498.938V263H492.938ZM474.938 269V263H492.938V269H474.938ZM534.924 233V269H528.924V263H510.924V257H528.924V239H510.924V233H534.924ZM510.924 257H504.924V239H510.924V257ZM504.924 269V263H510.924V269H504.924ZM157.042 359V353H175.042V359H157.042ZM151.042 383V359H157.042V383H151.042ZM175.042 365V359H181.042V365H175.042ZM175.042 383V377H181.042V383H175.042ZM157.042 389V383H175.042V389H157.042ZM217.028 353V389H211.028V359H193.028V389H187.028V353H217.028ZM229.015 359V353H247.015V359H229.015ZM223.015 389V359H229.015V377H247.015V359H253.015V389H247.015V383H229.015V389H223.015ZM265.001 359V353H283.001V359H265.001ZM259.001 383V359H265.001V383H259.001ZM283.001 365V359H289.001V365H283.001ZM283.001 383V377H289.001V383H283.001ZM265.001 389V383H283.001V389H265.001ZM300.987 377H306.987V383H300.987V389H294.987V353H300.987V377ZM318.987 353H324.987V389H318.987V371H312.987V365H318.987V353ZM306.987 377V371H312.987V377H306.987ZM354.974 383V389H330.974V353H354.974V359H336.974V365H354.974V371H336.974V383H354.974ZM354.974 371H360.974V383H354.974V371ZM372.96 359V353H390.96V359H372.96ZM366.96 383V359H372.96V383H366.96ZM390.96 383V359H396.96V383H390.96ZM372.96 389V383H390.96V389H372.96ZM402.946 377V353H408.946V377H402.946ZM402.946 389V383H408.946V389H402.946Z" fill="white"/>
</g>
<path d="M4 93.5C8.28225 56.9582 39.1457 29.3489 75.937 29.1479L492.899 26.8694C531.555 26.6582 564.354 55.1879 569.5 93.5V93.5H4V93.5Z" fill="url(#paint1_linear_416_19)"/>
<rect x="3" y="26" width="567" height="441" rx="79" stroke="#FF6CC8" stroke-width="2"/>
<circle cx="83.5" cy="40.5" r="25" fill="#FF6CC8" stroke="#FF6CC8" stroke-width="31"/>
<rect x="64.4409" y="21.4412" width="7.62353" height="7.62353" fill="white"/>
<rect x="72.0645" y="29.0646" width="7.62353" height="7.62353" fill="white"/>
<rect x="87.3115" y="29.0646" width="7.62353" height="7.62353" fill="white"/>
<rect x="64.4409" y="51.9353" width="7.62353" height="7.62353" fill="white"/>
<rect x="79.6875" y="36.6882" width="7.62353" height="7.62353" fill="white"/>
<rect x="94.9346" y="51.9353" width="7.62353" height="7.62353" fill="white"/>
<rect x="87.3115" y="44.3116" width="7.62353" height="7.62353" fill="white"/>
<rect x="94.9346" y="21.4412" width="7.62353" height="7.62353" fill="white"/>
<rect x="72.0645" y="44.3116" width="7.62353" height="7.62353" fill="white"/>
<defs>
<filter id="filter0_d_416_19" x="24.0898" y="172" width="517.834" height="224" filterUnits="userSpaceOnUse" color-interpolation-filters="sRGB">
<feFlood flood-opacity="0" result="BackgroundImageFix"/>
<feColorMatrix in="SourceAlpha" type="matrix" values="0 0 0 0 0 0 0 0 0 0 0 0 0 0 0 0 0 0 127 0" result="hardAlpha"/>
<feOffset dx="3" dy="3"/>
<feGaussianBlur stdDeviation="2"/>
<feComposite in2="hardAlpha" operator="out"/>
<feColorMatrix type="matrix" values="0 0 0 0 1 0 0 0 0 0 0 0 0 0 0.536842 0 0 0 1 0"/>
<feBlend mode="normal" in2="BackgroundImageFix" result="effect1_dropShadow_416_19"/>
<feBlend mode="normal" in="SourceGraphic" in2="effect1_dropShadow_416_19" result="shape"/>
</filter>
<linearGradient id="paint0_linear_416_19" x1="287.116" y1="23.4" x2="287.116" y2="468" gradientUnits="userSpaceOnUse">
<stop stop-color="#FFE7F5"/>
<stop offset="1" stop-color="#FEA7DB"/>
</linearGradient>
<linearGradient id="paint1_linear_416_19" x1="300.144" y1="22.2555" x2="300.144" y2="98.9998" gradientUnits="userSpaceOnUse">
<stop stop-color="#FFEEF6"/>
<stop offset="1" stop-color="#FD8BD0"/>
</linearGradient>
</defs>
</svg>
