<svg width="573" height="468" viewBox="0 0 573 468" fill="none" xmlns="http://www.w3.org/2000/svg">
<path d="M4.54318 106.041C4.7959 62.0379 40.5384 26.5 84.5419 26.5H489.09C533.042 26.5 568.762 61.9574 569.088 105.908L571.171 387.408C571.5 431.821 535.587 468 491.173 468H82.9252C38.5629 468 2.67167 431.902 2.92645 387.541L4.54318 106.041Z" fill="url(#paint0_linear_416_2)"/>
<g filter="url(#filter0_d_416_2)">
<path d="M82.0479 209V173H106.048V179H88.0479V185H106.048V191H88.0479V203H106.048V209H82.0479ZM106.048 185V179H112.048V185H106.048ZM106.048 203V191H112.048V203H106.048ZM142.034 203V209H118.034V173H124.034V185H142.034V191H124.034V203H142.034ZM154.034 173H160.034V209H154.034V173ZM142.034 191H148.034V203H142.034V191ZM208.05 173V179H190.05V173H208.05ZM184.05 185V179H190.05V185H184.05ZM214.05 179V185H208.05V179H214.05ZM208.05 185V191H196.05V185H208.05ZM208.05 203V191H214.05V203H208.05ZM184.05 197H190.05V203H184.05V197ZM208.05 203V209H190.05V203H208.05ZM226.036 179V173H244.036V179H226.036ZM220.036 209V179H226.036V197H244.036V179H250.036V209H244.036V203H226.036V209H220.036ZM286.022 173V209H280.022V179H262.022V209H256.022V173H286.022ZM298.009 197H304.009V203H298.009V209H292.009V173H298.009V197ZM316.009 173H322.009V209H316.009V191H310.009V185H316.009V173ZM304.009 197V191H310.009V197H304.009ZM333.995 179V173H351.995V179H333.995ZM327.995 203V179H333.995V203H327.995ZM351.995 185V179H357.995V185H351.995ZM351.995 203V197H357.995V203H351.995ZM333.995 209V203H351.995V209H333.995ZM369.981 179V173H387.981V179H369.981ZM363.981 209V179H369.981V197H387.981V179H393.981V209H387.981V203H369.981V209H363.981ZM399.968 209V173H405.968V185H423.968V173H429.968V209H423.968V191H405.968V209H399.968ZM459.954 203V209H435.954V173H441.954V185H459.954V191H441.954V203H459.954ZM471.954 173H477.954V209H471.954V173ZM459.954 191H465.954V203H459.954V191ZM40.0801 269V233H46.0801V245H64.0801V233H70.0801V269H64.0801V251H46.0801V269H40.0801ZM82.0664 239V233H100.066V239H82.0664ZM76.0664 269V239H82.0664V257H100.066V239H106.066V269H100.066V263H82.0664V269H76.0664ZM130.07 269V233H136.07V239H142.07V245H136.07V269H130.07ZM148.07 245V239H154.07V233H160.07V269H154.07V245H148.07ZM142.07 251V245H148.07V251H142.07ZM166.057 269V233H196.057V239H172.057V245H190.057V251H172.057V263H196.057V269H166.057ZM202.043 269V233H226.043V239H208.043V257H226.043V263H208.043V269H202.043ZM226.043 257V239H232.043V257H226.043ZM244.029 239V233H262.029V239H244.029ZM238.029 263V239H244.029V263H238.029ZM262.029 263V239H268.029V263H262.029ZM244.029 269V263H262.029V269H244.029ZM304.016 233V269H298.016V239H280.016V269H274.016V233H304.016ZM310.002 269V233H334.002V239H316.002V257H334.002V263H316.002V269H310.002ZM334.002 257V239H340.002V257H334.002ZM351.988 257H357.988V263H351.988V269H345.988V233H351.988V257ZM369.988 233H375.988V269H369.988V251H363.988V245H369.988V233ZM357.988 257V251H363.988V257H357.988ZM411.975 233V269H405.975V263H387.975V257H405.975V239H387.975V233H411.975ZM387.975 257H381.975V239H387.975V257ZM381.975 269V263H387.975V269H381.975ZM417.961 239V233H447.961V239H435.961V269H429.961V239H417.961ZM459.947 257H465.947V263H459.947V269H453.947V233H459.947V257ZM477.947 233H483.947V269H477.947V251H471.947V245H477.947V233ZM465.947 257V251H471.947V257H465.947ZM489.934 269V233H519.934V239H495.934V245H513.934V251H495.934V263H519.934V269H489.934ZM133.024 353H139.024V359H133.024V353ZM157.024 365H163.024V371H157.024V389H151.024V371H145.024V365H151.024V353H157.024V365ZM175.024 353V359H169.024V353H175.024ZM139.024 359H145.024V365H139.024V359ZM169.024 359V365H163.024V359H169.024ZM139.024 377V371H145.024V377H139.024ZM169.024 377H163.024V371H169.024V377ZM133.024 377H139.024V389H133.024V377ZM169.024 389V377H175.024V389H169.024ZM211.022 383H217.022V389H181.022V383H187.022V359H193.022V383H205.022V359H193.022V353H211.022V383ZM223.015 389V353H253.015V359H229.015V365H247.015V371H229.015V383H253.015V389H223.015ZM259.001 389V353H265.001V359H271.001V365H265.001V389H259.001ZM277.001 365V359H283.001V353H289.001V389H283.001V365H277.001ZM271.001 371V365H277.001V371H271.001ZM313.005 389V353H337.005V359H319.005V365H337.005V371H319.005V383H337.005V389H313.005ZM337.005 365V359H343.005V365H337.005ZM337.005 383V371H343.005V383H337.005ZM354.991 359V353H372.991V359H354.991ZM348.991 389V359H354.991V377H372.991V359H378.991V389H372.991V383H354.991V389H348.991ZM390.978 359V353H408.978V359H390.978ZM384.978 383V359H390.978V383H384.978ZM408.978 365V359H414.978V365H408.978ZM408.978 383V377H414.978V383H408.978ZM390.978 389V383H408.978V389H390.978ZM420.964 377V353H426.964V377H420.964ZM420.964 389V383H426.964V389H420.964Z" fill="white"/>
</g>
<path d="M4 93.5C8.28225 56.9582 39.1457 29.3489 75.937 29.1479L492.899 26.8694C531.555 26.6582 564.354 55.1879 569.5 93.5V93.5H4V93.5Z" fill="url(#paint1_linear_416_2)"/>
<rect x="3" y="26" width="567" height="441" rx="79" stroke="#FF6CC8" stroke-width="2"/>
<circle cx="83.5" cy="40.5" r="25" fill="#FF6CC8" stroke="#FF6CC8" stroke-width="31"/>
<rect x="64.4409" y="21.4412" width="7.62353" height="7.62353" fill="white"/>
<rect x="72.0645" y="29.0646" width="7.62353" height="7.62353" fill="white"/>
<rect x="87.3115" y="29.0646" width="7.62353" height="7.62353" fill="white"/>
<rect x="64.4409" y="51.9353" width="7.62353" height="7.62353" fill="white"/>
<rect x="79.6875" y="36.6882" width="7.62353" height="7.62353" fill="white"/>
<rect x="94.9346" y="51.9353" width="7.62353" height="7.62353" fill="white"/>
<rect x="87.3115" y="44.3116" width="7.62353" height="7.62353" fill="white"/>
<rect x="94.9346" y="21.4412" width="7.62353" height="7.62353" fill="white"/>
<rect x="72.0645" y="44.3116" width="7.62353" height="7.62353" fill="white"/>
<defs>
<filter id="filter0_d_416_2" x="39.0801" y="172" width="487.854" height="224" filterUnits="userSpaceOnUse" color-interpolation-filters="sRGB">
<feFlood flood-opacity="0" result="BackgroundImageFix"/>
<feColorMatrix in="SourceAlpha" type="matrix" values="0 0 0 0 0 0 0 0 0 0 0 0 0 0 0 0 0 0 127 0" result="hardAlpha"/>
<feOffset dx="3" dy="3"/>
<feGaussianBlur stdDeviation="2"/>
<feComposite in2="hardAlpha" operator="out"/>
<feColorMatrix type="matrix" values="0 0 0 0 1 0 0 0 0 0 0 0 0 0 0.536842 0 0 0 1 0"/>
<feBlend mode="normal" in2="BackgroundImageFix" result="effect1_dropShadow_416_2"/>
<feBlend mode="normal" in="SourceGraphic" in2="effect1_dropShadow_416_2" result="shape"/>
</filter>
<linearGradient id="paint0_linear_416_2" x1="287.116" y1="23.4" x2="287.116" y2="468" gradientUnits="userSpaceOnUse">
<stop stop-color="#FFE7F5"/>
<stop offset="1" stop-color="#FEA7DB"/>
</linearGradient>
<linearGradient id="paint1_linear_416_2" x1="300.144" y1="22.2555" x2="300.144" y2="98.9998" gradientUnits="userSpaceOnUse">
<stop stop-color="#FFEEF6"/>
<stop offset="1" stop-color="#FD8BD0"/>
</linearGradient>
</defs>
</svg>
