<svg width="465" height="380" viewBox="0 0 465 380" fill="none" xmlns="http://www.w3.org/2000/svg">
<rect x="2" y="19" width="462" height="361" rx="80" fill="url(#paint0_linear_377_885)"/>
<path d="M2.5 78.0002C11.968 44.1565 42.7449 20.7055 77.8877 20.557L385.623 19.2571C421.399 19.106 452.685 43.3272 461.5 78.0002V78.0002H2.5V78.0002Z" fill="url(#paint1_linear_377_885)"/>
<rect x="1" y="19" width="463" height="360" rx="79" stroke="#FF6CC8" stroke-width="2"/>
<rect x="57" y="1" width="233" height="49" rx="24.5" fill="url(#paint2_linear_377_885)" stroke="#FF6CC8" stroke-width="2"/>
<g filter="url(#filter0_d_377_885)">
<path d="M118 12.8V17H105.4V12.8H118ZM101.2 21.2V17H105.4V21.2H101.2ZM122.2 17V21.2H118V17H122.2ZM118 21.2V25.4H109.6V21.2H118ZM118 33.8V25.4H122.2V33.8H118ZM101.2 29.6H105.4V33.8H101.2V29.6ZM118 33.8V38H105.4V33.8H118ZM126.39 38V12.8H130.59V21.2H143.19V12.8H147.39V38H143.19V25.4H130.59V38H126.39ZM155.781 17V12.8H168.381V17H155.781ZM151.581 38V17H155.781V29.6H168.381V17H172.581V38H168.381V33.8H155.781V38H151.581ZM180.971 29.6H176.771V12.8H180.971V29.6ZM193.571 12.8H197.771V38H193.571V33.8H180.971V29.6H193.571V12.8ZM214.562 21.2V25.4H206.162V38H201.962V12.8H206.162V21.2H214.562ZM222.962 12.8V17H218.762V12.8H222.962ZM218.762 17V21.2H214.562V17H218.762ZM218.762 29.6H214.562V25.4H218.762V29.6ZM218.762 38V29.6H222.962V38H218.762ZM231.352 29.6H235.552V33.8H231.352V38H227.152V12.8H231.352V29.6ZM243.952 12.8H248.152V38H243.952V25.4H239.752V21.2H243.952V12.8ZM235.552 29.6V25.4H239.752V29.6H235.552Z" fill="white"/>
</g>
<g filter="url(#filter1_d_377_885)">
<path d="M165.2 210.8V215.6H155.6V230H150.8V201.2H155.6V210.8H165.2ZM174.8 201.2V206H170V201.2H174.8ZM170 206V210.8H165.2V206H170ZM170 220.4H165.2V215.6H170V220.4ZM170 230V220.4H174.8V230H170ZM184.389 201.2V210.8H179.589V201.2H184.389ZM198.789 201.2H203.589V225.2H198.789V215.6H184.389V210.8H198.789V201.2ZM179.589 220.4H184.389V225.2H179.589V220.4ZM198.789 225.2V230H184.389V225.2H198.789ZM232.378 201.2V230H227.578V206H213.178V230H208.378V201.2H232.378ZM241.967 220.4H246.767V225.2H241.967V230H237.167V201.2H241.967V220.4ZM256.367 201.2H261.167V230H256.367V215.6H251.567V210.8H256.367V201.2ZM246.767 220.4V215.6H251.567V220.4H246.767ZM265.956 206V201.2H289.956V206H280.356V230H275.556V206H265.956ZM313.945 225.2V230H294.745V201.2H299.545V210.8H313.945V215.6H299.545V225.2H313.945ZM313.945 215.6H318.745V225.2H313.945V215.6Z" fill="white"/>
</g>
<defs>
<filter id="filter0_d_377_885" x="98.2002" y="9.79999" width="154.952" height="33.2" filterUnits="userSpaceOnUse" color-interpolation-filters="sRGB">
<feFlood flood-opacity="0" result="BackgroundImageFix"/>
<feColorMatrix in="SourceAlpha" type="matrix" values="0 0 0 0 0 0 0 0 0 0 0 0 0 0 0 0 0 0 127 0" result="hardAlpha"/>
<feOffset dx="1" dy="1"/>
<feGaussianBlur stdDeviation="2"/>
<feComposite in2="hardAlpha" operator="out"/>
<feColorMatrix type="matrix" values="0 0 0 0 1 0 0 0 0 0 0 0 0 0 0.536842 0 0 0 1 0"/>
<feBlend mode="normal" in2="BackgroundImageFix" result="effect1_dropShadow_377_885"/>
<feBlend mode="normal" in="SourceGraphic" in2="effect1_dropShadow_377_885" result="shape"/>
</filter>
<filter id="filter1_d_377_885" x="149.8" y="200.2" width="175.945" height="36.8" filterUnits="userSpaceOnUse" color-interpolation-filters="sRGB">
<feFlood flood-opacity="0" result="BackgroundImageFix"/>
<feColorMatrix in="SourceAlpha" type="matrix" values="0 0 0 0 0 0 0 0 0 0 0 0 0 0 0 0 0 0 127 0" result="hardAlpha"/>
<feOffset dx="3" dy="3"/>
<feGaussianBlur stdDeviation="2"/>
<feComposite in2="hardAlpha" operator="out"/>
<feColorMatrix type="matrix" values="0 0 0 0 1 0 0 0 0 0 0 0 0 0 0.536842 0 0 0 1 0"/>
<feBlend mode="normal" in2="BackgroundImageFix" result="effect1_dropShadow_377_885"/>
<feBlend mode="normal" in="SourceGraphic" in2="effect1_dropShadow_377_885" result="shape"/>
</filter>
<linearGradient id="paint0_linear_377_885" x1="233" y1="19" x2="233" y2="380" gradientUnits="userSpaceOnUse">
<stop stop-color="#FFE7F5"/>
<stop offset="1" stop-color="#FEA7DB"/>
</linearGradient>
<linearGradient id="paint1_linear_377_885" x1="239.243" y1="18" x2="239.243" y2="78" gradientUnits="userSpaceOnUse">
<stop stop-color="#FFEEF6"/>
<stop offset="1" stop-color="#FD8BD0"/>
</linearGradient>
<linearGradient id="paint2_linear_377_885" x1="173.5" y1="0" x2="173.5" y2="51" gradientUnits="userSpaceOnUse">
<stop stop-color="white"/>
<stop offset="1" stop-color="#FEA7DB"/>
</linearGradient>
</defs>
</svg>
